<?xml version="1.0" standalone="no"?><!DOCTYPE svg PUBLIC "-//W3C//DTD SVG 1.1//EN" "http://www.w3.org/Graphics/SVG/1.1/DTD/svg11.dtd"><svg class="icon" height="48" viewBox="0 0 1024 1024" version="1.1" xmlns="http://www.w3.org/2000/svg"><path d="M364.634093 347.500393L21.638335 730.233464l167.797643-2.895836-143.343912 296.662372 328.516575-376.780518-147.687667-4.504635 137.713119-295.214454zM547.715318 89.770935c-24.614611 0-28.475727 33.463001-28.475726 44.563708v356.831421a28.475727 28.475727 0 0 0 28.475726 28.475727h279.930872c19.627337 0 32.175962-8.68751 32.175962-28.314847a30.567164 30.567164 0 0 0-33.78476-28.636606H576.191045V134.334643c0-16.087981-3.861115-44.563708-28.475727-44.563708z" fill="currentColor" /><path d="M544.336842 0A457.703064 457.703064 0 0 0 98.217125 560.827023a191.768735 191.768735 0 0 1 24.775491-25.90165 428.422938 428.422938 0 1 1 227.162294 305.671642 189.838178 189.838178 0 0 1-32.175963 16.087981A457.863943 457.863943 0 1 0 544.336842 0z" fill="currentColor" /></svg>