<?xml version="1.0" encoding="UTF-8"?>
<svg width="93px" height="87px" viewBox="0 0 93 87" version="1.1" xmlns="http://www.w3.org/2000/svg" xmlns:xlink="http://www.w3.org/1999/xlink">
    <!-- Generator: Sketch 59 (86127) - https://sketch.com -->
    <title>search (1)</title>
    <desc>Created with Sketch.</desc>
    <defs>
        <linearGradient x1="50%" y1="-13.608826%" x2="50%" y2="140.293407%" id="linearGradient-1">
            <stop stop-color="#FFC599" offset="0.23%"></stop>
            <stop stop-color="#FFE8DC" stop-opacity="0" offset="99.2%"></stop>
        </linearGradient>
    </defs>
    <g id="Page-1" stroke="none" stroke-width="1" fill="none" fill-rule="evenodd">
        <g id="Group-3" transform="translate(-1146.000000, -178.000000)" fill-rule="nonzero">
            <g id="Group-2" transform="translate(1106.000000, 138.000000)">
                <g id="search-(1)" transform="translate(40.000000, 40.000000)">
                    <path d="M92.1600119,31.7043041 C92.1600119,17.8066823 71.5293092,6.54048084 46.080006,6.54048084 C20.6307027,6.54048084 0,17.8066823 0,31.7043041 C0,33.9507044 0.53982007,36.1281647 1.5516002,38.2003249 C3.35286043,41.8887054 3.80196049,46.089366 2.90826038,50.0958065 C2.54178033,51.7386667 2.3360403,53.4420069 2.3083203,55.1887271 C2.08602027,69.1948889 13.4613017,80.7595304 27.4690835,80.7595304 C37.9888249,80.7595304 46.9996261,74.3038296 50.7583866,65.1382284 C52.8226268,60.1047078 57.1600874,56.3328073 62.4862881,55.2243671 C79.8346903,51.6141067 92.1600119,42.4458055 92.1600119,31.7043041 Z" id="Path" fill="url(#linearGradient-1)"></path>
                    <path d="M84.3843709,79.6069903 L66.3433286,61.565768 C65.6978485,60.9202879 64.6513283,60.9202879 64.0058483,61.565768 L63.5394682,62.032148 L57.3283874,55.8210672 C59.5038677,53.1291669 60.8826679,50.0074265 61.4658679,46.770126 L65.0385084,46.770126 C65.6281885,46.770126 66.1064485,46.292046 66.1064485,45.7021859 L66.1064485,27.4244435 C66.1064485,26.4312034 66.9115886,25.6260633 67.9048288,25.6260633 C68.8980689,25.6260633 69.703209,26.4312034 69.703209,27.4244435 L69.703209,45.7021859 C69.703209,46.292046 70.1812891,46.770126 70.7711491,46.770126 L75.6648098,46.770126 C76.2544898,46.770126 76.7327499,46.292046 76.7327499,45.7021859 L76.7327499,17.9370023 C76.7327499,17.3471422 76.2546698,16.8690622 75.6648098,16.8690622 L60.1450278,16.8690622 C59.5553477,16.8690622 59.0770876,17.3471422 59.0770876,17.9370023 L59.0770876,33.0841843 C58.2183075,31.6044041 57.1568474,30.2103039 55.8898272,28.9432837 C51.8747467,24.9282032 46.585986,22.964403 41.3242253,23.049183 L41.3242253,17.1824422 L44.2422057,20.1004226 C44.5649458,20.4231626 45.0882058,20.4231626 45.4109459,20.1004226 L50.4950465,15.0163219 C50.8177866,14.6935819 50.8177866,14.1703218 50.4950465,13.8475818 L41.5661454,4.91868064 C41.4111653,4.76370062 41.2009253,4.6765806 40.9816853,4.6765806 L36.7167647,4.6765806 C36.3900647,4.6765806 36.0883847,4.86666063 35.9616646,5.16798067 C35.1169245,7.17714093 33.1293643,8.58852111 30.812404,8.58852111 C28.4954437,8.58852111 26.5078834,7.17714093 25.6631433,5.16798067 C25.5364233,4.86684063 25.2347433,4.6765806 24.9080432,4.6765806 L20.6431227,4.6765806 C20.4238826,4.6765806 20.2136426,4.76370062 20.0586626,4.91868064 L11.1301214,13.8474018 C10.8073814,14.1701418 10.8073814,14.6934019 11.1301214,15.0161419 L16.2142221,20.1002426 C16.5369621,20.4229826 17.0602222,20.4229826 17.3829622,20.1002426 L20.3009426,17.1822622 L20.3009426,34.8656445 C20.3009426,35.3221246 20.6710227,35.6920246 21.1273227,35.6920246 L22.953963,35.6920246 C20.5279227,41.7562254 21.1685427,48.7611063 24.8761832,54.328147 L12.0785416,54.328147 C11.4888615,54.328147 11.0106014,54.8062271 11.0106014,55.3960872 L11.0106014,72.3711693 C11.0106014,72.9608494 11.4886815,73.4391095 12.0785416,73.4391095 L16.9722022,73.4391095 C17.5618823,73.4391095 18.0401423,72.9610294 18.0401423,72.3711693 L18.0401423,64.8835284 C18.0401423,63.8902883 18.8452824,63.0851481 19.8385226,63.0851481 C20.8317627,63.0851481 21.6369028,63.8902883 21.6369028,64.8835284 L21.6369028,72.3711693 C21.6369028,72.9608494 22.1149829,73.4391095 22.7048429,73.4391095 L27.5985036,73.4391095 C28.1883636,73.4391095 28.6664437,72.9610294 28.6664437,72.3711693 L28.6664437,58.5732676 C36.0336647,64.8025284 46.818006,64.8982884 54.289807,58.8596476 L60.5008878,65.0707284 L60.0345078,65.5371085 C59.3890277,66.1825885 59.3890277,67.2291087 60.0345078,67.8745888 L78.0755501,85.9158111 C78.7210302,86.5612912 79.7675503,86.5612912 80.4130304,85.9158111 L84.3845509,81.9442906 C85.030031,81.2989905 85.030031,80.2524704 84.3843709,79.6069903 Z" id="Path" fill="#0000CC" opacity="0.1"></path>
                    <path d="M59.0770876,14.1604218 L59.0770876,41.9257854 C59.0770876,42.5156455 59.5551677,42.9937256 60.1450278,42.9937256 L65.0386884,42.9937256 C65.6285485,42.9937256 66.1066285,42.5156455 66.1066285,41.9257854 L66.1066285,23.6478631 C66.1066285,22.6546229 66.9117686,21.8494828 67.9050088,21.8494828 C68.8982489,21.8494828 69.703389,22.6546229 69.703389,23.6478631 L69.703389,41.9256054 C69.703389,42.5154655 70.1814691,42.9937256 70.7713291,42.9937256 L75.6649898,42.9937256 C76.2548498,42.9937256 76.7329299,42.5154655 76.7329299,41.9256054 L76.7329299,14.1604218 C76.7329299,13.5705618 76.2548498,13.0924817 75.6649898,13.0924817 L60.1452078,13.0924817 C59.5551677,13.0924817 59.0770876,13.5707418 59.0770876,14.1604218 L59.0770876,14.1604218 Z" id="Path" fill="#9494FF"></path>
                    <g id="Group" transform="translate(59.040008, 12.960002)" fill="#D9D9FF">
                        <path d="M17.6925623,3.15864041 L17.6925623,1.20042016 C17.6925623,0.610560079 17.2144822,0.132480017 16.6246221,0.132480017 L1.10484014,0.132480017 C0.514980067,0.132480017 0.0369000048,0.610560079 0.0369000048,1.20042016 L0.0369000048,3.15864041 L17.6925623,3.15864041 Z" id="Path"></path>
                        <path d="M0.0370800048,26.8299035 L0.0370800048,28.9656037 C0.0370800048,29.5554638 0.515160067,30.0335439 1.10502014,30.0335439 L5.99868077,30.0335439 C6.58854085,30.0335439 7.06662091,29.5554638 7.06662091,28.9656037 L7.06662091,26.8299035 L0.0370800048,26.8299035 Z" id="Path"></path>
                        <path d="M10.6632014,26.8299035 L10.6632014,28.9656037 C10.6632014,29.5554638 11.1412814,30.0335439 11.7311415,30.0335439 L16.6248021,30.0335439 C17.2146622,30.0335439 17.6927423,29.5554638 17.6927423,28.9656037 L17.6927423,26.8299035 L10.6632014,26.8299035 Z" id="Path"></path>
                    </g>
                    <path d="M72.5011294,16.1186421 C72.5477494,17.9352023 73.5309095,19.5989425 75.1107697,20.5097426 L76.7318499,21.4452028 L76.7318499,16.1186421 L72.5011294,16.1186421 Z" id="Path" fill="#6C6CFF"></path>
                    <path d="M63.3078082,16.1186421 C63.2611882,17.9352023 62.278028,19.5989425 60.6981678,20.5097426 L59.0770876,21.4452028 L59.0770876,16.1186421 L63.3078082,16.1186421 Z" id="Path" fill="#6C6CFF"></path>
                    <path d="M64.5357683,16.4593821 L63.5212882,16.4593821 C63.4033882,16.4593821 63.3076282,16.3638021 63.3076282,16.2457221 L63.3076282,13.0924817 L64.7492486,13.0924817 L64.7492486,16.2457221 C64.7494284,16.3638021 64.6538483,16.4593821 64.5357683,16.4593821 Z" id="Path" fill="#B3B3FF"></path>
                    <path d="M72.2876493,16.4593821 L71.2731692,16.4593821 C71.1552692,16.4593821 71.0595092,16.3638021 71.0595092,16.2457221 L71.0595092,13.0924817 L72.5011294,13.0924817 L72.5011294,16.2457221 C72.5011294,16.3638021 72.4055494,16.4593821 72.2876493,16.4593821 Z" id="Path" fill="#B3B3FF"></path>
                    <path d="M11.0106014,51.6196867 L11.0106014,68.5947689 C11.0106014,69.1846289 11.4886815,69.662709 12.0785416,69.662709 L16.9722022,69.662709 C17.5620623,69.662709 18.0401423,69.1846289 18.0401423,68.5947689 L18.0401423,61.1071279 C18.0401423,60.1138878 18.8452824,59.3087477 19.8385226,59.3087477 C20.8317627,59.3087477 21.6369028,60.1138878 21.6369028,61.1071279 L21.6369028,68.5947689 C21.6369028,69.1846289 22.1149829,69.662709 22.7048429,69.662709 L27.5985036,69.662709 C28.1883636,69.662709 28.6664437,69.1846289 28.6664437,68.5947689 L28.6664437,51.6196867 C28.6664437,51.0298266 28.1883636,50.5517465 27.5985036,50.5517465 L12.0785416,50.5517465 C11.4888615,50.5517465 11.0106014,51.0300066 11.0106014,51.6196867 Z" id="Path" fill="#FF9494"></path>
                    <path d="M28.6662637,53.5780869 L28.6662637,51.6198667 C28.6662637,51.0300066 28.1881836,50.5519265 27.5983236,50.5519265 L12.0785416,50.5519265 C11.4886815,50.5519265 11.0106014,51.0300066 11.0106014,51.6198667 L11.0106014,53.5780869 L28.6662637,53.5780869 Z" id="Path" fill="#FFD9D9"></path>
                    <path d="M11.0106014,66.4590686 L11.0106014,68.5947689 C11.0106014,69.1846289 11.4886815,69.662709 12.0785416,69.662709 L16.9722022,69.662709 C17.5620623,69.662709 18.0401423,69.1846289 18.0401423,68.5947689 L18.0401423,66.4590686 L11.0106014,66.4590686 Z" id="Path" fill="#FFD9D9"></path>
                    <path d="M21.6367228,66.4590686 L21.6367228,68.5947689 C21.6367228,69.1846289 22.1148029,69.662709 22.7046629,69.662709 L27.5983236,69.662709 C28.1881836,69.662709 28.6662637,69.1846289 28.6662637,68.5947689 L28.6662637,66.4590686 L21.6367228,66.4590686 Z" id="Path" fill="#FFD9D9"></path>
                    <path d="M24.4348232,53.5780869 C24.4814432,55.3946472 25.4646033,57.0583874 27.0444635,57.9691875 L28.6655437,58.9046476 L28.6655437,53.5780869 L24.4348232,53.5780869 Z" id="Path" fill="#FF4D4D"></path>
                    <path d="M15.241502,53.5780869 C15.194882,55.3946472 14.2117218,57.0583874 12.6318616,57.9691875 L11.0107814,58.9046476 L11.0107814,53.5780869 L15.241502,53.5780869 Z" id="Path" fill="#FF4D4D"></path>
                    <path d="M16.4694621,53.918827 L15.454982,53.918827 C15.337082,53.918827 15.241322,53.823247 15.241322,53.7051669 L15.241322,50.5519265 L16.6829424,50.5519265 L16.6829424,53.7051669 C16.6831222,53.823067 16.5873621,53.918827 16.4694621,53.918827 L16.4694621,53.918827 Z" id="Path" fill="#FF9494"></path>
                    <path d="M24.2211631,53.918827 L23.206683,53.918827 C23.088783,53.918827 22.993023,53.823247 22.993023,53.7051669 L22.993023,50.5519265 L24.4346434,50.5519265 L24.4346434,53.7051669 C24.4348232,53.823067 24.3392431,53.918827 24.2211631,53.918827 Z" id="Path" fill="#FF9494"></path>
                    <path d="M50.4950465,11.2395615 L45.4107659,16.3238421 C45.0880258,16.6465821 44.5647658,16.6465821 44.2420257,16.3238421 L41.3240453,13.4058617 L41.3240453,31.089244 C41.3240453,31.5457241 40.9539653,31.9156241 40.4976652,31.9156241 L21.1275027,31.9156241 C20.6710227,31.9156241 20.3011226,31.5455441 20.3011226,31.089244 L20.3011226,13.4058617 L17.3831422,16.3238421 C17.0604022,16.6465821 16.5371421,16.6465821 16.2144021,16.3238421 L11.1301214,11.2395615 C10.8073814,10.9168214 10.8073814,10.3935613 11.1301214,10.0708213 L20.0590226,1.14192015 C20.2140026,0.987120127 20.4242426,0.900000116 20.6434827,0.900000116 L24.9084032,0.900000116 C25.2351033,0.900000116 25.5367833,1.09008014 25.6635033,1.39140018 C26.5082434,3.40056044 28.4958037,4.81194062 30.812764,4.81194062 C33.1297243,4.81194062 35.1172845,3.40056044 35.9620246,1.39140018 C36.0887447,1.09008014 36.3904247,0.900000116 36.7171247,0.900000116 L40.9820453,0.900000116 C41.2012853,0.900000116 41.4113453,0.987120127 41.5665054,1.14210015 L50.4954065,10.0710013 C50.8177866,10.3935613 50.8177866,10.9168214 50.4950465,11.2395615 Z" id="Path" fill="#FF4D4D"></path>
                    <polygon id="Path" stroke="#0000CC" stroke-width="1.79972841" fill="#4D4DFF" stroke-linecap="round" stroke-linejoin="round" transform="translate(58.639190, 56.406417) rotate(-45.000000) translate(-58.639190, -56.406417) " points="56.4907645 50.1264446 60.7876161 50.1264446 60.7876161 62.6863893 56.4907645 62.6863893"></polygon>
                    <path d="M55.7298072,50.4459065 L59.0770876,53.7931869 C58.6317676,54.345967 58.1513475,54.8802071 57.6383474,55.3932072 C57.1253474,55.9062072 56.5911073,56.3866273 56.0383272,56.8319473 L52.6910468,53.4846669 L55.7298072,50.4459065 Z" id="Path" fill="#2C27FF"></path>
                    <circle id="Oval" fill="#FF9D33" cx="41.6509254" cy="39.4057851" r="20.1369626"></circle>
                    <circle id="Oval" fill="#D9D9FF" cx="41.6509254" cy="39.4057851" r="15.502322"></circle>
                    <path d="M57.0175274,37.3629648 L39.6075651,54.7711271 C37.9009849,54.548107 36.2266247,54.039247 34.6584645,53.2461669 L55.4905872,32.4140442 C56.2856473,33.9820244 56.7946873,35.6563846 57.0175274,37.3629648 L57.0175274,37.3629648 Z" id="Path" fill="#EBEBFF"></path>
                    <path d="M54.6688871,30.984124 L33.2307043,52.4224868 C32.3298042,51.8416267 31.4773241,51.1545666 30.689644,50.3668865 C29.7113438,49.3885864 28.8894637,48.3112862 28.2295836,47.1675661 L49.4123464,25.9848034 C50.5560665,26.6448634 51.6351667,27.4665635 52.6134668,28.4448637 C53.4011469,29.2325438 54.086227,30.0850239 54.6688871,30.984124 Z" id="Path" fill="#EBEBFF"></path>
                    <path d="M46.9252861,24.8266832 L46.9252861,43.9792257 C46.9252861,44.5492858 46.463046,45.0079258 45.8947859,45.0079258 L27.1918835,45.0079258 C25.0464632,39.4581651 26.2099834,32.9229043 30.687844,28.4450437 C35.0776845,24.0550231 41.4491454,22.848483 46.9252861,24.8266832 L46.9252861,24.8266832 Z" id="Path" fill="#FF6C6C"></path>
                    <path d="M84.3843709,78.1678901 L80.4128504,82.1394106 C79.7673703,82.7848907 78.7208502,82.7848907 78.0753701,82.1394106 L60.0343278,64.0981883 C59.3888477,63.4527082 59.3888477,62.4061881 60.0343278,61.760708 L64.0058483,57.7891875 C64.6513283,57.1437074 65.6978485,57.1437074 66.3433286,57.7891875 L84.3843709,75.8304098 C85.029851,76.4758899 85.029851,77.52241 84.3843709,78.1678901 Z" id="Path" fill="#FF9D33"></path>
                    <polygon id="Path" fill="#FFC599" transform="translate(67.426798, 65.196051) rotate(-45.000000) translate(-67.426798, -65.196051) " points="62.9663507 63.133832 71.8872445 63.133832 71.8872445 67.2582696 62.9663507 67.2582696"></polygon>
                    <path d="M53.2490469,27.8076636 C50.1510665,24.7096832 46.0321259,23.003643 41.6509254,23.003643 C37.2697248,23.003643 33.1507843,24.7098632 30.0528039,27.8076636 C26.9548235,30.905464 25.2487833,35.0245845 25.2487833,39.4057851 C25.2487833,43.7869857 26.9550035,47.9059262 30.0528039,51.0039066 C33.1506043,54.101887 37.2697248,55.8079272 41.6509254,55.8079272 C46.0321259,55.8079272 50.1510665,54.101707 53.2490469,51.0039066 C56.3470273,47.9061062 58.0532475,43.7869857 58.0532475,39.4057851 C58.0532475,35.0245845 56.3470273,30.905644 53.2490469,27.8076636 Z M51.9760867,49.7311264 C49.2181264,52.4890868 45.5511659,54.008107 41.6507454,54.008107 C37.7503249,54.008107 34.0833644,52.4892668 31.325404,49.7311264 C28.5674437,46.9729861 27.0484235,43.3062056 27.0484235,39.4057851 C27.0484235,35.5053646 28.5672637,31.8384041 31.325404,29.0804438 C34.0835444,26.3224834 37.7503249,24.8034632 41.6507454,24.8034632 C45.5511659,24.8034632 49.2181264,26.3223034 51.9760867,29.0804438 C54.7342271,31.8384041 56.2530673,35.5053646 56.2530673,39.4057851 C56.2530673,43.3062056 54.7342271,46.9729861 51.9760867,49.7311264 Z" id="Shape" fill="#0000CC"></path>
                    <path d="M85.020851,75.1939297 L71.3071892,61.4802679 C70.9556492,61.1289079 70.3859491,61.1289079 70.034409,61.4802679 C69.682869,61.831808 69.682869,62.4016881 70.034409,62.7530481 L83.7480708,76.4667099 C84.0416509,76.7602899 84.0416509,77.23783 83.7480708,77.53141 L79.7765503,81.5027505 C79.4829703,81.7963306 79.0054302,81.7963306 78.7118502,81.5027505 L60.6708078,63.4618882 C60.3772278,63.1683082 60.3772278,62.6905881 60.6708078,62.3970081 L64.6421483,58.4254875 C64.9357284,58.1319075 65.4132684,58.1319075 65.7068485,58.4254875 C66.0583885,58.7768476 66.6280886,58.7768476 66.9796286,58.4254875 C67.3311687,58.0739475 67.3311687,57.5040674 66.9796286,57.1527074 C66.0416485,56.2149073 64.5498083,56.1616273 63.5479282,56.9912474 L58.5250276,51.9685267 C60.3513078,49.5189064 61.575848,46.759326 62.197028,43.8935457 L65.0383284,43.8935457 C66.1233685,43.8935457 67.0062687,43.0108256 67.0062687,41.9256054 L67.0062687,23.6478631 C67.0062687,23.152503 67.4092887,22.7494829 67.9046488,22.7494829 C68.4000088,22.7494829 68.8030289,23.152503 68.8030289,23.6478631 L68.8030289,41.9256054 C68.8030289,43.0106456 69.685749,43.8935457 70.7709691,43.8935457 L75.6646298,43.8935457 C76.7496699,43.8935457 77.63257,43.0108256 77.63257,41.9256054 L77.63257,14.1604218 C77.63257,13.0753817 76.7496699,12.1924816 75.6646298,12.1924816 L60.1448478,12.1924816 C59.0598076,12.1924816 58.1769075,13.0752017 58.1769075,14.1604218 L58.1769075,26.3892634 C57.6691274,25.7455833 57.1197674,25.1242232 56.5261273,24.5304032 C52.5704468,20.5747227 47.4184861,18.5274024 42.2240455,18.3870024 L42.2240455,15.578642 L43.6055456,16.9601422 C44.2787457,17.6331623 45.3738659,17.6331623 46.0470659,16.9601422 L51.1313466,11.8758615 C51.8045467,11.2026614 51.8045467,10.1073613 51.1313466,9.43434122 L42.2024455,0.505440065 C41.8762854,0.179460023 41.4428454,5.68434189e-14 40.9818653,5.68434189e-14 L36.7169447,5.68434189e-14 C36.0205247,5.68434189e-14 35.3984446,0.409140053 35.1322245,1.04256013 C34.3994444,2.78568036 32.7038442,3.91194051 30.812584,3.91194051 C28.9213237,3.91194051 27.2259035,2.78568036 26.4929434,1.04256013 C26.2267234,0.409140053 25.6046433,5.68434189e-14 24.9082232,5.68434189e-14 L20.6433027,5.68434189e-14 C20.1823226,5.68434189e-14 19.7488826,0.179460023 19.4225425,0.505620065 L10.4938214,9.43452122 C9.82062127,10.1077213 9.82062127,11.2030214 10.4938214,11.8760415 L15.578102,16.9603222 C16.2513021,17.6333423 17.3464222,17.6333423 18.0196223,16.9603222 L19.4011225,15.578822 L19.4011225,31.089424 C19.4011225,32.0414441 20.1756626,32.8158042 21.1275027,32.8158042 L21.6761428,32.8158042 C19.8622826,38.344325 20.3945426,44.4812457 23.275083,49.6519264 L12.0785416,49.6519264 C10.9935014,49.6519264 10.1106013,50.5346465 10.1106013,51.6198667 L10.1106013,68.5951289 C10.1106013,69.680169 10.9933214,70.5630691 12.0785416,70.5630691 L16.9723822,70.5630691 C18.0574223,70.5630691 18.9403224,69.680349 18.9403224,68.5951289 L18.9403224,61.1074879 C18.9403224,60.6121278 19.3433425,60.2091078 19.8387026,60.2091078 C20.3340626,60.2091078 20.7370827,60.6121278 20.7370827,61.1074879 L20.7370827,68.5951289 C20.7370827,69.680169 21.6198028,70.5630691 22.7050229,70.5630691 L27.5986836,70.5630691 C28.6837237,70.5630691 29.5666238,69.680349 29.5666238,68.5951289 L29.5666238,61.0282879 C29.5666238,60.5313078 29.1636038,60.1282878 28.6666237,60.1282878 C28.1696436,60.1282878 27.7666236,60.5313078 27.7666236,61.0282879 L27.7666236,68.5951289 C27.7666236,68.6876489 27.6913836,68.7630689 27.5986836,68.7630689 L22.7050229,68.7630689 C22.6125029,68.7630689 22.5370829,68.6878289 22.5370829,68.5951289 L22.5370829,61.1074879 C22.5370829,59.6196077 21.3265828,58.4091075 19.8387026,58.4091075 C18.3508224,58.4091075 17.1403222,59.6196077 17.1403222,61.1074879 L17.1403222,68.5951289 C17.1403222,68.6876489 17.0650822,68.7630689 16.9723822,68.7630689 L12.0785416,68.7630689 C11.9860215,68.7630689 11.9106015,68.6878289 11.9106015,68.5951289 L11.9106015,51.6198667 C11.9106015,51.5273467 11.9858415,51.4519266 12.0785416,51.4519266 L24.4022432,51.4519266 C25.0975832,52.4464268 25.8883233,53.3939469 26.7755435,54.281167 C30.876844,58.3822875 36.2638847,60.4328478 41.6509254,60.4328478 C46.076406,60.4328478 50.5011665,59.0479276 54.213847,56.2802473 L59.2367477,61.3031479 C58.4071275,62.305028 58.4604075,63.7968682 59.3982077,64.7348484 L77.43925,82.7758907 C77.9369501,83.2735908 78.5905301,83.5223508 79.2444702,83.5223508 C79.8980503,83.5223508 80.5519904,83.2734108 81.0496905,82.7758907 L85.021211,78.8043702 C86.0162511,77.80879 86.0162511,76.1893298 85.020851,75.1939297 Z M59.9770877,14.1604218 C59.9770877,14.0679018 60.0523278,13.9924818 60.1450278,13.9924818 L75.6648098,13.9924818 C75.7575098,13.9924818 75.8327498,14.0677218 75.8327498,14.1604218 L75.8327498,41.9257854 C75.8327498,42.0183054 75.7575098,42.0937254 75.6648098,42.0937254 L70.7711491,42.0937254 C70.6786291,42.0937254 70.6032091,42.0184854 70.6032091,41.9257854 L70.6032091,23.6478631 C70.6032091,22.1599829 69.392709,20.9494827 67.9048288,20.9494827 C66.4169486,20.9494827 65.2064484,22.1599829 65.2064484,23.6478631 L65.2064484,41.9256054 C65.2064484,42.0181254 65.1312084,42.0937254 65.0385084,42.0937254 L62.5055481,42.0937254 C63.0723681,37.6561849 62.229788,33.0721243 59.9769077,29.0732438 L59.9769077,14.1604218 L59.9770877,14.1604218 Z M21.2011227,31.015804 L21.2011227,13.4058617 C21.2011227,13.0419017 20.9818827,12.7135816 20.6456427,12.5742616 C20.3094026,12.4351216 19.9220426,12.5119816 19.6648225,12.7693816 L16.7990422,15.635342 L11.8186215,10.6552814 L20.6739027,1.80000023 L24.8590832,1.80000023 C25.8868833,4.17852054 28.2166236,5.71194074 30.812584,5.71194074 C33.4085443,5.71194074 35.7382846,4.17852054 36.7660847,1.80000023 L40.9514453,1.80000023 L49.8065464,10.6552814 L44.8264858,15.635342 L41.9607054,12.7693816 C41.7033054,12.5119816 41.3163053,12.4351216 40.9798853,12.5742616 C40.6436452,12.7135816 40.4244052,13.0417217 40.4244052,13.4058617 L40.4244052,18.4154424 C35.4533446,18.7032624 30.5654439,20.7405027 26.7755435,24.5302232 C24.8524232,26.4533434 23.380203,28.6594237 22.3588829,31.015804 L21.2011227,31.015804 L21.2011227,31.015804 Z M28.0483236,53.0083868 C20.5479027,45.5079659 20.5479027,33.3037843 28.0483236,25.8031833 C31.7989841,22.0525228 36.7241447,20.1778226 41.6509254,20.1778226 C46.576446,20.1778226 51.5037667,22.0534228 55.2535271,25.8031833 C62.7539481,33.3036043 62.7539481,45.5077859 55.2535271,53.0083868 C47.7529262,60.5088078 35.5489246,60.5088078 28.0483236,53.0083868 Z M56.5263073,54.281167 C56.8227673,53.984707 57.1073474,53.6806869 57.3823874,53.3712669 L62.266868,58.2555675 L60.5008878,60.0215478 L55.6165872,55.1372471 C55.9258272,54.8622071 56.2298473,54.577627 56.5263073,54.281167 L56.5263073,54.281167 Z" id="Shape" fill="#0000CC"></path>
                    <path d="M41.6440854,41.2221653 L36.2489447,41.2221653 C35.7523246,41.2221653 35.3498446,40.8195053 35.3498446,40.3230652 L35.3498446,38.2849249 C35.3498446,37.7883049 35.7525046,37.3858248 36.2489447,37.3858248 L41.6440854,37.3858248 C42.1407054,37.3858248 42.5431855,37.7884849 42.5431855,38.2849249 L42.5431855,40.3230652 C42.5431855,40.8196853 42.1407054,41.2221653 41.6440854,41.2221653 Z" id="Path" fill="#4D4DFF"></path>
                    <path d="M46.9252861,40.9795253 L46.9252861,43.9792257 C46.9252861,44.5492858 46.463046,45.0079258 45.8947859,45.0079258 L42.8968855,45.0079258 L46.9252861,40.9795253 Z" id="Path" fill="#FF9494"></path>
                    <polygon id="Path" fill="#FF9494" points="46.9252861 28.4718637 46.9252861 38.727905 40.6454452 45.0077458 30.3894039 45.0077458"></polygon>
                    <path d="M42.5426455,38.2854649 L42.5426455,40.3230652 C42.5426455,40.8193253 42.1398054,41.2221653 41.6435454,41.2221653 L36.2484047,41.2221653 C35.7521446,41.2221653 35.3493046,40.8193253 35.3493046,40.3230652 L35.3493046,40.0478452 L38.0107849,37.3863648 L41.6435454,37.3863648 C42.1398054,37.3863648 42.5426455,37.7892049 42.5426455,38.2854649 L42.5426455,38.2854649 Z" id="Path" fill="#6C6CFF"></path>
                    <path d="M76.8301299,56.7072073 C76.5997299,56.7072073 76.3695099,56.6193673 76.1936498,56.4436873 C75.8421098,56.0921472 75.8421098,55.5222672 76.1936498,55.1709071 L77.9920301,53.3725269 C78.3433901,53.0211668 78.9132702,53.0211668 79.2648102,53.3725269 C79.6163503,53.7240669 79.6163503,54.293947 79.2648102,54.6453071 L77.46643,56.4436873 C77.29093,56.6193673 77.06053,56.7072073 76.8301299,56.7072073 Z" id="Path" fill="#FF9D33"></path>
                    <path d="M38.946605,71.4216692 C38.716205,71.4216692 38.485985,71.3338292 38.3101249,71.1581492 C37.9585849,70.8066091 37.9585849,70.2367291 38.3101249,69.885369 L40.1085052,68.0869888 C40.4600452,67.7356287 41.0297453,67.7356287 41.3812853,68.0869888 C41.7328254,68.4385288 41.7328254,69.0084089 41.3812853,69.359769 L39.5829051,71.1581492 C39.4072251,71.3336492 39.1768251,71.4216692 38.946605,71.4216692 L38.946605,71.4216692 Z" id="Path" fill="#FF9D33"></path>
                    <path d="M13.6261818,25.6608033 C13.3957817,25.6608033 13.1655617,25.5729633 12.9897017,25.3972833 C12.6381616,25.0457432 12.6381616,24.4758632 12.9897017,24.1245031 L14.7880819,22.3261229 C15.139802,21.9747628 15.709502,21.9749428 16.0608621,22.3261229 C16.4124021,22.6776629 16.4124021,23.247543 16.0608621,23.598903 L14.2624818,25.3972833 C14.0868018,25.5729633 13.8564018,25.6608033 13.6261818,25.6608033 Z" id="Path" fill="#6C6CFF"></path>
                    <path d="M10.8882014,32.5756842 C10.6578014,32.5756842 10.4275813,32.4878442 10.2517213,32.3121642 L9.08982117,31.150084 L7.92774102,32.3121642 C7.57620098,32.6635242 7.0065009,32.6635242 6.65496086,32.3121642 C6.30342081,31.9606241 6.30342081,31.3907441 6.65496086,31.039384 L8.45334109,29.2410038 C8.62218111,29.0721638 8.85096114,28.9774837 9.08982117,28.9774837 C9.3285012,28.9774837 9.55746123,29.0723438 9.72630126,29.2410038 L11.5246815,31.039384 C11.8762215,31.3909241 11.8762215,31.9608041 11.5246815,32.3121642 C11.3488215,32.4878442 11.1184214,32.5756842 10.8882014,32.5756842 L10.8882014,32.5756842 Z" id="Path" fill="#FF6C6C"></path>
                    <path d="M62.9908281,7.90776102 C62.7604281,7.90776102 62.5302081,7.81992101 62.3543481,7.64424099 L61.1924479,6.48216084 L60.0303678,7.64424099 C59.6788277,7.99578103 59.1091276,7.99560103 58.7575876,7.64424099 C58.4060475,7.29270094 58.4060475,6.72282087 58.7575876,6.37146082 L60.5559678,4.57308059 C60.9076879,4.22172055 61.4773879,4.22190055 61.828748,4.57308059 L63.6271282,6.37146082 C63.9786683,6.72300087 63.9786683,7.29288094 63.6271282,7.64424099 C63.4514482,7.81974101 63.2212282,7.90776102 62.9908281,7.90776102 L62.9908281,7.90776102 Z" id="Path" fill="#FF6C6C"></path>
                </g>
            </g>
        </g>
    </g>
</svg>